<svg version="1.1" id="Vrstva_1" xmlns="http://www.w3.org/2000/svg" xmlns:xlink="http://www.w3.org/1999/xlink" x="0px" y="0px"
	 viewBox="-1.000 -1.000 38.400 38.000" enable-background="new 0 0 36.4 36" xml:space="preserve">
<path fill="#488CCB" d="M30.3,16.6l-3.2-5.6c-5.1,0.3-10.8,2.7-15.8,5.5l-3.8,6.6C14.6,19.2,23,15.9,30.3,16.6z M32,26
	c1.6,0.2,3.1,0.6,4.5,1.2l-3.9-6.7c-0.6-0.2-1.2-0.3-1.8-0.4c-8.3-1.1-19.1,4.2-26.8,9.1L0,36h0.1C9.2,30.5,21.7,24.6,32,26z
	 M20.8,0l-6.3,11c3.5-1.6,7.2-2.8,10.8-3.3L20.8,0z"/>

</svg>
